<svg height="87" viewBox="0 0 171 87" fill="none" xmlns="http://www.w3.org/2000/svg"><path fill="#fff" d="M0 0h194v87H0z"/><rect x="9" y="8" width="175" height="32.9" rx="1.6" fill="#fff"/><rect x="14" y="13" width="28" height="17" rx="3" fill="#9EA9B8" fill-opacity=".7"/><path opacity=".5" d="M32 26h-9c-.5 0-1-.5-1-1.1V18c0-.6.5-1.1 1-1.1h9c.5 0 1 .5 1 1.1V25c0 .6-.5 1.1-1 1.1zm-7.6-7.7c-.7 0-1.2.6-1.2 1.3 0 .7.5 1.3 1.2 1.3s1.2-.6 1.2-1.3c0-.7-.5-1.3-1.2-1.3zm-1 6.2h8.2v-2.6l-1.9-2a.2.2 0 00-.3 0l-3 3.1-1.1-1.3a.2.2 0 00-.4 0l-1.5 1.7v1.1z" fill="#fff"/><rect x="49" y="14" width="110" height="3" rx="1.5" fill="#B5C1D1" fill-opacity=".7"/><rect x="49" y="20" width="89" height="3" rx="1.5" fill="#B5C1D1" fill-opacity=".7"/><rect x="49" y="26" width="46" height="3" rx="1.5" fill="#B5C1D1" fill-opacity=".7"/><rect x="49" y="32" width="46" height="3" rx="1.5" fill="#B5C1D1" fill-opacity=".7"/><rect x="9" y="48" width="175" height="32.9" rx="1.6" fill="#fff"/><rect x="14" y="53" width="28" height="17" rx="3" fill="#9EA9B8" fill-opacity=".7"/><path opacity=".5" d="M32 66h-9c-.5 0-1-.5-1-1.1V58c0-.6.5-1.1 1-1.1h9c.5 0 1 .5 1 1.1V65c0 .6-.5 1.1-1 1.1zm-7.6-7.7c-.7 0-1.2.6-1.2 1.3 0 .7.5 1.3 1.2 1.3s1.2-.6 1.2-1.3c0-.7-.5-1.3-1.2-1.3zm-1 6.2h8.2v-2.6l-1.9-2a.2.2 0 00-.3 0l-3 3.1-1.1-1.3a.2.2 0 00-.4 0l-1.5 1.7v1.1z" fill="#fff"/><rect x="49" y="54" width="110" height="3" rx="1.5" fill="#B5C1D1" fill-opacity=".7"/><rect x="49" y="60" width="89" height="3" rx="1.5" fill="#B5C1D1" fill-opacity=".7"/><rect x="49" y="66" width="46" height="3" rx="1.5" fill="#B5C1D1" fill-opacity=".7"/><rect x="49" y="72" width="46" height="3" rx="1.5" fill="#B5C1D1" fill-opacity=".7"/></svg>