<svg height="87" viewBox="10 0 171 87" fill="none" xmlns="http://www.w3.org/2000/svg"><path fill="#fff" d="M0 0h194v87H0z"/><rect x="9" y="48" width="81" height="32.9" rx="1.6" fill="#fff"/><rect x="14" y="53" width="19" height="17" rx="3" fill="#9EA9B8" fill-opacity=".7"/><path opacity=".5" d="M28 66h-9l-1-1v-7l1-1h9l1 1v7l-1 1zm-8-8l-1 2 1 1 2-1-2-2zm-1 7h9v-3l-2-2h-1l-3 3-1-1-2 1v2z" fill="#fff"/><rect x="38" y="54" width="50" height="3" rx="1.5" fill="#B5C1D1" fill-opacity=".7"/><rect x="38" y="60" width="40" height="3" rx="1.5" fill="#B5C1D1" fill-opacity=".7"/><rect x="38" y="66" width="21" height="3" rx="1.5" fill="#B5C1D1" fill-opacity=".7"/><rect x="38" y="72" width="21" height="3" rx="1.5" fill="#B5C1D1" fill-opacity=".7"/><rect x="97" y="48" width="81" height="32.9" rx="1.6" fill="#fff"/><rect x="102" y="53" width="19" height="17" rx="3" fill="#9EA9B8" fill-opacity=".7"/><path opacity=".5" d="M116 66h-9l-1-1v-7l1-1h9l1 1v7l-1 1zm-8-8l-1 2 1 1 2-1-2-2zm-1 7h9v-3l-2-2h-1l-3 3-1-1-2 1v2z" fill="#fff"/><rect x="126" y="54" width="50" height="3" rx="1.5" fill="#B5C1D1" fill-opacity=".7"/><rect x="126" y="60" width="40" height="3" rx="1.5" fill="#B5C1D1" fill-opacity=".7"/><rect x="126" y="66" width="21" height="3" rx="1.5" fill="#B5C1D1" fill-opacity=".7"/><rect x="126" y="72" width="21" height="3" rx="1.5" fill="#B5C1D1" fill-opacity=".7"/><rect x="9" y="8" width="81" height="32.9" rx="1.6" fill="#fff"/><rect x="14" y="13" width="19" height="17" rx="3" fill="#9EA9B8" fill-opacity=".7"/><path opacity=".5" d="M28 26h-9l-1-1v-7l1-1h9l1 1v7l-1 1zm-8-8l-1 2 1 1 2-1-2-2zm-1 7h9v-3l-2-2h-1l-3 3-1-1-2 1v2z" fill="#fff"/><rect x="38" y="14" width="50" height="3" rx="1.5" fill="#B5C1D1" fill-opacity=".7"/><rect x="38" y="20" width="40" height="3" rx="1.5" fill="#B5C1D1" fill-opacity=".7"/><rect x="38" y="26" width="21" height="3" rx="1.5" fill="#B5C1D1" fill-opacity=".7"/><rect x="38" y="32" width="21" height="3" rx="1.5" fill="#B5C1D1" fill-opacity=".7"/><rect x="97" y="8" width="81" height="32.9" rx="1.6" fill="#fff"/><rect x="102" y="13" width="19" height="17" rx="3" fill="#9EA9B8" fill-opacity=".7"/><path opacity=".5" d="M116 26h-9l-1-1v-7l1-1h9l1 1v7l-1 1zm-8-8l-1 2 1 1 2-1-2-2zm-1 7h9v-3l-2-2h-1l-3 3-1-1-2 1v2z" fill="#fff"/><rect x="126" y="14" width="50" height="3" rx="1.5" fill="#B5C1D1" fill-opacity=".7"/><rect x="126" y="20" width="40" height="3" rx="1.5" fill="#B5C1D1" fill-opacity=".7"/><rect x="126" y="26" width="21" height="3" rx="1.5" fill="#B5C1D1" fill-opacity=".7"/><rect x="126" y="32" width="21" height="3" rx="1.5" fill="#B5C1D1" fill-opacity=".7"/></svg>