<svg xmlns="http://www.w3.org/2000/svg" viewBox="0 0 384 512"><path fill="currentColor" d="M272 192a80 80 0 1 1-160 0 80 80 0 0 1 160 0zm-80 48a48 48 0 1 0 0-96 48 48 0 0 0 0 96zm192-48c0 87.4-117 243-168.3 307.2a30.2 30.2 0 0 1-47.4 0C116.1 435 0 279.4 0 192a192 192 0 1 1 384 0zM192 32A160 160 0 0 0 32 192c0 15.6 5.4 37 16.6 63.4 10.9 25.9 26.2 54 43.5 82.1 34.1 55.3 74.5 108.2 99.9 140.1 25.4-31.9 65.8-84.8 99.9-140.1a622 622 0 0 0 43.5-82.1C346.6 229 352 207.6 352 192A160 160 0 0 0 192 32z"/></svg>