<svg xmlns="http://www.w3.org/2000/svg">
    <defs>
        <symbol id="dmp-logo" viewBox="0 0 496.6 57.7">
            <path d="M28,0C19.6,0,12.8,2.7,7.7,8.2C2.6,13.6,0,20.8,0,29.6C0,38,2.5,44.7,7.6,49.9c5,5.2,11.6,7.8,19.5,7.8
	c8.2,0,14.9-2.7,20-8.1c5.1-5.4,7.7-12.4,7.7-21.2c0-8.5-2.5-15.4-7.4-20.6C42.4,2.6,36,0,28,0z M37.7,42.2c-2.5,3.1-6,4.7-10.3,4.7
	c-4.2,0-7.6-1.6-10.2-4.8c-2.6-3.2-3.9-7.6-3.9-13.1c0-5.5,1.3-9.8,3.9-13.1c2.6-3.3,6.1-5,10.5-5c4.3,0,7.7,1.6,10.1,4.8
	c2.5,3.2,3.7,7.7,3.7,13.5C41.5,34.7,40.2,39.1,37.7,42.2z"/>
            <path d="M98.5,37.6c-0.7-0.9-1.4-1.7-2.1-2.5c-0.7-0.8-1.5-1.5-2.3-2s-1.6-1-2.4-1.3v-0.2c1.9-0.5,3.6-1.3,5.2-2.3
	c1.5-1,2.9-2.1,4-3.4c1.1-1.3,1.9-2.8,2.5-4.5c0.6-1.6,0.9-3.4,0.9-5.4c0-10.1-6.8-15.2-20.3-15.2H64v55.8h12.6V35.4h3.4
	c0.8,0,1.5,0.2,2.2,0.5c0.7,0.3,1.3,0.8,1.9,1.4c0.6,0.6,1.2,1.3,1.8,2.2c0.6,0.9,1.2,1.8,1.9,2.9l8.7,14.4h14.4l-10.6-16.5
	C99.7,39.4,99.1,38.5,98.5,37.6z M88.5,23.6c-1.6,1.6-3.8,2.3-6.5,2.3h-5.5V10.4h5.7c5.8,0,8.8,2.4,8.8,7.3C91,20,90.2,22,88.5,23.6
	z"/>
            <path d="M135.8,0.9H116v55.8h19.8c9,0,16.2-2.6,21.6-7.8s8.1-12.1,8.1-20.8C165.6,10,155.7,0.9,135.8,0.9z M147.7,41.7
	c-3.1,3.3-7.4,4.9-12.8,4.9h-6.2V11.2h6.2c5.6,0,9.9,1.5,12.9,4.6c3.1,3.1,4.6,7.2,4.6,12.6C152.3,33.9,150.8,38.4,147.7,41.7z"/>
            <path d="M209.3,37.6c-0.7-0.9-1.4-1.7-2.1-2.5c-0.7-0.8-1.5-1.5-2.3-2c-0.8-0.6-1.6-1-2.4-1.3v-0.2c1.9-0.5,3.6-1.3,5.2-2.3
	c1.5-1,2.9-2.1,4-3.4c1.1-1.3,1.9-2.8,2.5-4.5c0.6-1.6,0.9-3.4,0.9-5.4c0-10.1-6.8-15.2-20.3-15.2h-19.9v55.8h12.6V35.4h3.4
	c0.8,0,1.5,0.2,2.2,0.5c0.7,0.3,1.3,0.8,1.9,1.4c0.6,0.6,1.2,1.3,1.8,2.2c0.6,0.9,1.2,1.8,1.9,2.9l8.7,14.4h14.4l-10.6-16.5
	C210.6,39.4,210,38.5,209.3,37.6z M199.4,23.6c-1.6,1.6-3.8,2.3-6.5,2.3h-5.5V10.4h5.7c5.8,0,8.8,2.4,8.8,7.3
	C201.9,20,201,22,199.4,23.6z"/>
            <polygon points="239.5,33.8 257.7,33.8 257.7,23.6 239.5,23.6 239.5,11.2 259.1,11.2 259.1,0.9 226.9,0.9 226.9,56.8 260.4,56.8
	260.4,46.6 239.5,46.6 "/>
            <path d="M295.7,27.1v-0.2c3-1,5.4-2.6,7.1-5c1.7-2.3,2.6-5.1,2.6-8.3c0-3.8-1.4-6.9-4.2-9.2c-2.8-2.4-6.7-3.5-11.5-3.5h-15.9v55.8
	H290c5.2,0,9.5-1.5,13-4.4c3.4-3,5.1-6.8,5.1-11.6c0-3.8-1.1-7-3.4-9.4C302.4,29,299.4,27.5,295.7,27.1z M280.2,6.9h7.5
	c7.1,0,10.7,2.7,10.7,8.1c0,3.1-1,5.6-3.1,7.3c-2.1,1.7-4.9,2.6-8.5,2.6h-6.7V6.9z M298.1,48.1c-2.1,1.8-5.1,2.7-8.9,2.7h-8.9V30.8
	h7.5c9,0,13.5,3.3,13.5,9.9C301.2,43.8,300.2,46.3,298.1,48.1z"/>
            <path d="M342.9,0c-8.4,0-15,2.7-19.8,8c-4.9,5.3-7.3,12.5-7.3,21.5c0,8.4,2.4,15.1,7.1,20.4s11.1,7.8,19,7.8
	c8.1,0,14.6-2.6,19.4-7.9s7.2-12.5,7.2-21.6c0-8.4-2.4-15.2-7.1-20.4C356.8,2.6,350.6,0,342.9,0z M356.4,45.8c-3.5,4-8.4,6-14.5,6
	c-5.7,0-10.4-2.1-14-6.3c-3.6-4.2-5.4-9.7-5.4-16.6c0-6.9,1.8-12.4,5.5-16.7c3.7-4.2,8.4-6.3,14.3-6.3c6,0,10.7,2,14.2,6
	c3.4,4,5.1,9.7,5.1,17.1C361.7,36.2,359.9,41.8,356.4,45.8z"/>
            <path d="M403,0c-8.4,0-15,2.7-19.8,8c-4.9,5.3-7.3,12.5-7.3,21.5c0,8.4,2.4,15.1,7.1,20.4s11.1,7.8,19,7.8c8.1,0,14.6-2.6,19.4-7.9
	c4.8-5.3,7.2-12.5,7.2-21.6c0-8.4-2.4-15.2-7.1-20.4C416.9,2.6,410.7,0,403,0z M416.5,45.8c-3.5,4-8.4,6-14.5,6
	c-5.7,0-10.4-2.1-14-6.3c-3.6-4.2-5.4-9.7-5.4-16.6c0-6.9,1.8-12.4,5.5-16.7c3.7-4.2,8.4-6.3,14.3-6.3c6,0,10.7,2,14.2,6
	c3.4,4,5.1,9.7,5.1,17.1C421.8,36.2,420.1,41.8,416.5,45.8z"/>
            <path d="M488.4,0.9l-17.5,38.8c-0.7,1.5-1.6,3.8-2.7,6.9H468c-0.4-1.5-1.2-3.7-2.6-6.7L448.3,0.9h-8.6v55.8h6.3V19.4
	c0-5.1-0.1-8.7-0.3-10.9h0.2c0.6,2.6,1.1,4.5,1.7,5.7l19,42.6h3.2l19.1-42.9c0.5-1.1,1.1-2.9,1.7-5.4h0.2c-0.4,4.3-0.5,7.9-0.5,10.9
	v37.5h6.5V0.9H488.4z"/>
        </symbol>
    </defs>
</svg>