<svg id="Layer_1" data-name="Layer 1" xmlns="http://www.w3.org/2000/svg" viewBox="0 0 101.02 116.18"><title>Play Icon</title><path d="M3.16,30.76V85.62l47.51,27.43L98.18,85.62V30.76L50.67,3.33ZM39.75,77V39.37L72.33,58.19Z" transform="translate(-0.16 -0.1)" style="fill:#ffde17"/><path d="M100.43,28.59,51.42.3a1.49,1.49,0,0,0-1.5,0L.91,28.59a1.52,1.52,0,0,0-.75,1.3V86.48a1.51,1.51,0,0,0,.75,1.3l49,28.3a1.51,1.51,0,0,0,1.5,0l49-28.3a1.51,1.51,0,0,0,.75-1.3V29.89A1.52,1.52,0,0,0,100.43,28.59Zm-2.25,57L50.67,113.05,3.16,85.62V30.76L50.67,3.33,98.18,30.76Z" transform="translate(-0.16 -0.1)" style="fill:#323232"/><polygon points="39.58 76.91 72.17 58.09 39.58 39.28 39.58 76.91" style="fill:#323232"/></svg>