<svg xmlns="http://www.w3.org/2000/svg" width="800" height="800" viewBox="0 0 36.09 36.09" xml:space="preserve"><path fill="currentColor" d="M36.04 13.9a1 1 0 0 0-.85-.68l-11.55-1.17-4.68-10.62c-.16-.36-.52-.6-.92-.6s-.75.24-.91.6l-4.68 10.62L.9 13.22a1 1 0 0 0-.57 1.74L9 22.7 6.53 34.05a1 1 0 0 0 1.48 1.07l10.04-5.84 10.03 5.84a1 1 0 0 0 1.48-1.08L27.1 22.7l8.66-7.74a1 1 0 0 0 .28-1.05zm-10.7 7.7a1 1 0 0 0-.32.95l2.1 9.7-8.57-4.99a1 1 0 0 0-1 0l-8.58 4.99 2.1-9.7a1 1 0 0 0-.32-.95l-7.4-6.62 9.88-1a1 1 0 0 0 .81-.59l4-9.08 4 9.08a1 1 0 0 0 .82.6l9.87 1-7.4 6.6z"/></svg>