<?xml version="1.0" encoding="utf-8"?>
<!-- Generator: Adobe Illustrator 25.2.0, SVG Export Plug-In . SVG Version: 6.00 Build 0)  -->
<svg version="1.1" id="Layer_1" xmlns="http://www.w3.org/2000/svg" xmlns:xlink="http://www.w3.org/1999/xlink" x="0px" y="0px"
	 viewBox="0 0 9.1 15.6" style="enable-background:new 0 0 9.1 15.6;" xml:space="preserve">
<path d="M9.1,1.3c0,0.1-0.1,0.3-0.2,0.4L2.8,7.8l6.1,6.1C9,14,9.1,14.2,9.1,14.3S9,14.6,8.9,14.7l-0.8,0.8c-0.1,0.1-0.2,0.2-0.4,0.2
	s-0.3-0.1-0.4-0.2L0.2,8.2C0.1,8.1,0,7.9,0,7.8s0.1-0.3,0.2-0.4l7.3-7.3C7.5,0.1,7.7,0,7.8,0s0.3,0.1,0.4,0.2l0.8,0.8
	C9,1,9.1,1.2,9.1,1.3z"/>
</svg>
