<?xml version="1.0" encoding="utf-8"?>
<!-- Generator: Adobe Illustrator 28.1.0, SVG Export Plug-In . SVG Version: 6.00 Build 0)  -->
<svg fill="#FFF" version="1.1" id="Layer_1" xmlns="http://www.w3.org/2000/svg" xmlns:xlink="http://www.w3.org/1999/xlink" x="0px" y="0px"
	 viewBox="0 0 579.39 75.4" style="enable-background:new 0 0 579.39 75.4;" xml:space="preserve">
<g>
	<path d="M48.49,18.9c-0.7,1.02-1.39,2.04-2.11,3.05c-1.33,1.87-2.15,3.92-1.94,6.25
		c0.13,1.37,0.51,2.72,0.68,4.1c0.29,2.46,0.51,4.92-2.19,6.38c-0.19,0.11-0.23,0.5-0.34,0.76c0.25,0.09,0.51,0.25,0.76,0.25
		c0.29-0.01,0.59-0.13,0.85-0.27c1.26-0.67,1.82-1.87,2.21-3.15c0.55-1.82,0.19-3.62-0.29-5.4c-0.71-2.6-0.89-5.12,0.93-7.43
		c0.93-1.18,1.84-2.41,2.58-3.72c0.7-1.25,1.47-2.59,1.67-3.97c0.51-3.48,0.82-7.03-1.27-10.2c-0.75-1.14-1.66-2.17-3.11-2.67
		c-0.05,0.22-0.12,0.37-0.11,0.52c0.34,2.99-0.91,4.98-3.82,6.04c-0.32,0.12-0.65,0.21-0.93,0.39c-0.16,0.1-0.23,0.35-0.35,0.53
		c0.16,0.09,0.33,0.27,0.49,0.26c0.63-0.04,1.3-0.04,1.89-0.24c1.72-0.57,3-1.69,3.7-3.42c-0.15,1.79-1.39,2.88-2.69,4.06
		c1.74,0.01,2.57-1.15,3.7-2c-0.26,0.78-0.53,1.56-0.79,2.35c0.07,0.05,0.13,0.09,0.2,0.14c0.56-0.76,1.11-1.51,1.67-2.27
		c0.08,0,0.17,0,0.25,0c-0.1,1.26-0.2,2.52-0.3,3.78c-1.07-0.15-1.86-0.27-2.78-0.4c0.04,0.37,0.03,0.82,0.1,0.84
		c0.7,0.14,1.41,0.21,2.14,0.3c-0.37,1.89-1.21,3.57-2.58,4.92c-1.37,1.35-2.86,2.54-5,2.35C44.59,22.15,46.52,20.56,48.49,18.9z
		 M40.77,11.91c0.08-0.04,0.17-0.07,0.25-0.11c0.45,0.96,1.2,1.41,2.21,1.26c0.27-0.04,0.49-0.35,0.74-0.54
		c-0.25-0.16-0.48-0.42-0.76-0.48c-2.53-0.59-2.66-0.56-1.54-3.18c0.66-1.54,2.07-2.44,3.35-3.42c1.09-0.83,1.44-1.93,1.04-2.78
		c-0.51,0.46-1.01,0.98-1.58,1.42c-0.55,0.43-1.23,0.71-1.75,1.17c-3.02,2.61-4.05,5.94-3.49,9.83c0.26,1.81,0.46,3.63-0.26,5.41
		c-0.66,1.62-1.28,3.27-1.9,4.91c-0.12,0.31-0.16,0.64-0.23,0.96c0.07,0.04,0.15,0.07,0.22,0.11c0.82-2.23,2.49-3.57,4.54-4.58
		c-0.54,0.03-1.08,0.06-1.66,0.09c1.04-2.39,1.14-4.76,0.84-7.18C40.67,13.84,40.77,12.87,40.77,11.91z M48.18,31.93
		c-0.03-3.3,0.83-6.34,2.4-9.22c1.06-1.94,2.08-3.89,2.52-6.12c1.08-5.51-0.08-10.51-3.21-15.1c-0.51-0.74-1.28-1.13-2.2-0.95
		c-0.24,0.05-0.42,0.41-0.63,0.62c0.19,0.18,0.38,0.49,0.58,0.5c1.19,0.06,1.85,0.8,2.27,1.77c0.64,1.48,1.28,2.97,1.79,4.5
		c1.28,3.81,0.77,7.54-0.73,11.17c-0.87,2.11-2,4.12-2.86,6.23C47.21,27.49,47.29,29.73,48.18,31.93z M17.04,69.69
		c0.1-0.03,0.21-0.05,0.31-0.08c0.13,0.8,0.3,1.6,0.39,2.41c0.1,1.01,0.23,2.03,1.25,2.5c0.88,0.4,1.84,0.69,2.8,0.84
		c0.59,0.09,1.37,0.16,1.92-0.91c-0.7-0.01-1.23-0.1-1.73-0.02c-1.85,0.29-2.94-0.71-2.77-2.6c0.68,0.21,1.35,0.41,2.03,0.62
		c0.03-0.08,0.07-0.16,0.1-0.24c-0.39-0.31-0.85-0.55-1.15-0.93c-1.28-1.62-2.58-3.23-3.71-4.95c-0.35-0.53-0.25-1.41-0.24-2.12
		c0.02-0.77,0.17-1.54,0.3-2.56c-0.36,0.59-0.55,0.94-0.77,1.27c-1.03,1.54-1.36,3.11-0.48,4.86c0.32,0.65,0.44,1.41,0.59,2.13
		c0.22,1.04,0.38,2.1,0.57,3.14c0.08,0,0.15,0,0.23-0.01C16.81,71.93,16.92,70.81,17.04,69.69z M42.45,28.27
		c0.14,0.05,0.28,0.09,0.42,0.14c-0.39,2.37-0.77,4.74-1.16,7.1c0.73-0.69,1.61-1.46,1.79-2.37c0.36-1.8,0.3-3.67,0.48-5.51
		c0.08-0.85,0.18-1.72,0.47-2.52c0.5-1.4,0.43-2.81-0.6-3.63c0.19,3.35-2.1,5.77-2.99,8.73C41.39,29.56,41.92,28.92,42.45,28.27z
		 M25.42,64.15c0.38,2.6-1.66,5.05-0.34,7.89c0.49-2.05,1-3.86,1.31-5.7C26.52,65.57,26.4,64.66,25.42,64.15z M42.12,17.41
		c0.13,0.49,0.14,0.89,0.33,1.17c0.24,0.35,0.59,0.67,0.96,0.86c0.16,0.08,0.5-0.19,0.76-0.29c-0.15-0.35-0.3-0.7-0.48-1.11
		c0.24,0.1,0.47,0.25,0.72,0.28c0.3,0.03,0.61-0.04,0.91-0.07c-0.09-0.29-0.1-0.65-0.29-0.85C44.12,16.43,43.17,16.48,42.12,17.41z
		 M25.25,71.79c-0.48,1.09-0.02,1.35,0.59,1.35c0.28,0,0.56-0.3,0.85-0.46C26.24,72.39,25.78,72.11,25.25,71.79z"/>
	<path d="M45,0c0.45,0.21,0.91,0.41,1.36,0.62c0.04,0.09,0.07,0.19,0.11,0.28c-0.31,0.11-0.65,0.37-0.92,0.31
		c-2.68-0.62-4.5,0.19-5.97,2.53c-0.86,1.37-1.39,2.81-1.74,4.38c-0.4,1.81-0.17,3.58,0.48,5.19c1.27,3.11,0.19,5.78-1.05,8.54
		c-1.24,2.75-2.36,5.57-3.53,8.35c-0.08,0.2-0.19,0.39-0.48,0.53c0.05-0.58,0.05-1.17,0.16-1.74c0.37-1.88,0.71-3.75,1.58-5.52
		c0.85-1.73,1.99-3.35,2.31-5.33c0.24-1.49,0.27-2.9-0.18-4.39c-0.93-3.07-1.03-6.16,0.7-9.01c0.85-1.4,1.94-2.67,2.81-3.85
		c-1.59,0.75-3.12,1.84-3.89,3.85c-1.02,2.65-1.29,5.37-1.11,8.18c0.12,1.9-0.2,3.75-0.84,5.57c-0.47,1.32-0.85,2.74-0.91,4.13
		c-0.09,2.01-0.61,3.85-1.47,5.64c-0.55,1.14-0.99,2.34-1.64,3.56c0.06-0.79,0.09-1.58,0.21-2.36c0.07-0.42,0.34-0.81,0.45-1.24
		c0.34-1.36,0.84-2.72,0.92-4.1c0.12-2.25,0.36-4.41,1.19-6.54c0.48-1.23,0.5-2.64,0.64-3.98c0.03-0.25-0.3-0.71-0.54-0.78
		c-2.78-0.72-5.57-1.38-8.35-2.08c-0.56-0.14-0.8,0.02-0.93,0.57c-0.63,2.72-1.3,5.44-1.9,8.17c-0.06,0.29,0.15,0.73,0.37,0.98
		c0.73,0.85,0.93,1.84,0.97,2.92c0.1,2.43,0.23,4.87,0.4,7.3c0.02,0.28,0.3,0.67,0.56,0.78c1.11,0.45,2.25,0.82,3.34,1.2
		c0.65-3.01,1.43-5.82,1.83-8.69c0.25-1.77-0.06-3.62-0.14-5.44c-0.02-0.43-0.1-0.85-0.15-1.27c0.14-0.03,0.27-0.06,0.41-0.09
		c0.27,0.9,0.65,1.79,0.8,2.71c0.34,2.13,0.76,4.28,0.08,6.43c-0.34,1.06-0.65,2.13-1.03,3.17c-1.11,3.02-0.56,4.01,2.62,4.47
		c0.27,0.04,0.65-0.22,0.88-0.45c0.27-0.26,0.43-0.63,0.84-0.86c-0.19,0.55-0.38,1.11-0.61,1.79c1.07,0.37,2.13,0.79,3.23,1.09
		c0.21,0.06,0.65-0.25,0.79-0.5c0.43-0.73,0.73-1.52,1.14-2.26c0.18-0.33,0.48-0.6,0.73-0.89c0.08,0.06,0.17,0.11,0.25,0.17
		c-0.26,0.6-0.54,1.19-0.77,1.79c-0.34,0.91-0.72,1.83-0.94,2.77c-0.13,0.57,0.09,1.22,0.03,1.82c-0.02,0.27-0.32,0.72-0.5,0.72
		c-0.71,0.02-0.82,0.55-1.08,1c-1.57,2.74-3.23,5.44-4.73,8.22c-0.86,1.59-1.53,3.3-2.2,4.98c-0.16,0.39-0.32,0.99,0.4,1.29
		c0.11,0.04-0.07,0.79-0.16,1.5c0.93,1.47,1.79,3.39,2.81,5.24c-0.1,0.07-0.21,0.13-0.31,0.2c-0.23-0.13-0.46-0.27-0.89-0.51
		c0.37,0.96,0.7,1.73,0.96,2.52c0.08,0.24-0.05,0.54-0.09,0.82c-0.29-0.1-0.78-0.12-0.85-0.31c-0.37-0.93-0.74-1.88-0.9-2.86
		c-0.3-1.87-0.94-3.58-1.96-5.22c-0.47,0.07-0.96,0.15-1.54,0.24c-0.23,1.64,0.73,2.76,1.65,3.85c0.56,0.66,0.92,1.27,0.59,2.09
		c-0.11,0.06-0.23,0.12-0.34,0.18c-0.58-0.81-1.15-1.62-1.74-2.46c-0.91,1.22-0.27,3.08-1.87,3.96c-0.01-2.53,1.46-4.86,0.79-7.45
		c-0.96-0.13-1.95-0.27-3.15-0.43c-0.42,1.23-0.87,2.55-1.32,3.86c0.05,0.03,0.11,0.07,0.16,0.1c0.13-0.13,0.25-0.27,0.38-0.4
		c0.07,0.02,0.15,0.04,0.22,0.06c-0.35,1.53-0.7,3.06-1.05,4.59c1.1-1.89,1.91-3.98,4.1-5.06c-1.21,1.74-2.54,3.37-2.34,5.74
		c0.18,2.14-0.19,4.33,1.24,6.23c-0.08,0.07-0.17,0.15-0.25,0.22c-0.45-0.33-0.9-0.65-1.35-0.98c-0.09,0.01-0.19,0.03-0.28,0.04
		c0.17,0.93,0.34,1.86,0.5,2.77c-0.83-0.01-1.34-0.53-1.39-1.8c-0.03-0.94,0.13-1.88,0.22-2.83c0.08-0.84,0.17-1.68,0.24-2.45
		c-0.48-0.09-0.88-0.16-1.21-0.21c-0.25,0.39-0.55,0.86-0.84,1.32c-0.14-0.04-0.29-0.09-0.43-0.13c0.03-0.56,0.05-1.13,0.08-1.77
		c-0.58-0.09-0.91-0.36-0.61-1.14c0.35-0.91,0.54-1.87,0.77-2.7c-1.01-0.18-2.09-0.32-3.15-0.59c-0.32-0.08-0.55-0.49-0.83-0.75
		c0.31-0.15,0.62-0.3,0.96-0.46c-0.44-0.31-0.75-0.73-0.08-1.08c-0.19-0.43-0.35-0.8-0.56-1.27c0.48,0,0.77,0,1.2,0
		c-0.14-0.85-0.25-1.68-0.41-2.5c-0.47-2.49-1.05-4.96-1.43-7.47c-0.37-2.4,0.28-4.61,1.62-6.64c0.44-0.67,0.81-1.4,1.11-2.15
		c0.36-0.9-0.23-2.33-1.05-2.85c-2.56-1.61-5.16-3.17-7.64-4.89c-1.36-0.95-2.52-2.2-3.77-3.31c-0.86,0.88-0.89,0.87-1.28-0.28
		c-0.17-0.5-0.37-0.99-0.46-1.53c-2.84-3.34-4.85-6.97-3.76-11.6c0.63-2.7,3.08-5.28,6.31-5.71C5.75,8.84,5.09,9.1,4.55,9.52
		c-2.54,1.97-3.51,4.52-3.05,7.76c0.4,2.82,1.67,5.08,3.65,7.17c2.34-2.71,5.4-4.11,8.72-5.25c-1.63-2.02-4.15-2.78-6.25-4.22
		c2.27,0.06,3.07-0.83,10.15,5.28c0.62-1.78,1.14-3.55,1.85-5.24c0.7-1.7,1.59-3.32,2.45-5.08c-3.65-0.57-7.3-1.15-11.23-1.76
		c0.38-0.12,0.51-0.19,0.65-0.2c3.64-0.24,7.25,0.02,10.8,0.88c0.56,0.13,0.97,0.17,1.44-0.34c0.41-0.44,1.07-0.64,1.67-0.98
		c-0.09,0.59-0.18,1.14-0.27,1.72c3.04,0.78,6.03,1.55,8.92,2.29c0.18-1.48,0.27-3.1,0.58-4.67c0.34-1.7,1.02-3.36,2.26-4.57
		c1.19-1.16,2.56-2.18,4.5-1.81c0.54,0.1,1.18-0.31,1.77-0.49C43.78,0,44.39,0,45,0z M19.78,38.3c-0.37,0.9-0.55,1.8-1.04,2.47
		c-1.42,1.92-2.08,4.05-1.83,6.37c0.31,2.85,1.08,5.66,1.22,8.51c0.1,1.97,1.02,2.52,2.63,2.73c0.06,0.01,0.12-0.03,0.28-0.08
		c0.04-0.86,1.15-1.62,0.42-2.57c0.19-0.29,0.6-0.87,0.58-0.88c-0.92-0.69-0.54-1.18,0.16-1.72c0.13-0.1,0.05-0.45,0.07-0.69
		c0.16-1.78,0.17-3.6,0.5-5.35c0.59-3.14,1.16-6.26,0.83-9.47c-0.09-0.85,0.2-1.94-1.13-2.31c0.21-0.22,0.41-0.34,0.45-0.49
		c0.08-0.32,0.19-0.91,0.08-0.96c-1.12-0.57-0.6-1.11,0.04-1.7c-0.3-0.37-0.58-0.72-0.83-1.03c0.22-0.26,0.56-0.48,0.54-0.67
		c-0.07-0.63-0.1-1.35-0.43-1.84c-1.08-1.61-2.27-3.16-3.46-4.69c-0.63-0.81-1.37-1.53-1.84-2.06c-4.03,0.5-7.26,2.01-10.18,4.4
		c0.32,0.27,0.56,0.45,0.77,0.66c2.19,2.28,4.72,4.09,7.45,5.69c1.38,0.81,2.79,1.7,3.87,2.85c0.94,0.99,1.45,2.38,2.11,3.62
		c0.07,0.14-0.1,0.4-0.21,0.79C20.38,39.2,20.08,38.75,19.78,38.3z M26.26,53.55c0.42-5.54,2.39-10.87,1.71-16.51
		c-1.01-0.24-2.06-0.49-3.14-0.75c0,0.34-0.01,0.67,0,1.01c0.08,2.92-0.25,5.79-0.74,8.67c-0.41,2.45-0.39,4.97-0.56,7.58
		C24.54,53.55,25.36,53.55,26.26,53.55z M31.81,37.84c-2.77,4.78-3.72,10.05-4.15,15.55c0.5-0.24,1.09-0.55,1.17-0.95
		c0.61-3.2,2.49-5.76,4.12-8.46c1-1.66,1.86-3.4,2.86-5.24C34.33,38.4,33.12,38.13,31.81,37.84z M22.57,26.4
		c0-1.12,0.12-1.94-0.03-2.72c-0.18-0.97,0.14-2.21-1.16-2.76c-0.14-0.06-0.18-0.5-0.18-0.75c0.03-0.8,0.04-1.6,0.16-2.38
		c0.25-1.52,0.57-3.04,0.86-4.56c-0.34,0.29-0.55,0.63-0.69,0.99c-0.62,1.67-1.24,3.35-1.82,5.04c-0.51,1.48-0.28,2.88,0.61,4.15
		C20.99,24.35,21.7,25.24,22.57,26.4z M29.14,40.27c0.55-0.95,1.08-1.85,1.63-2.79c-0.59-0.11-1.08-0.2-1.63-0.31
		C29.14,38.26,29.14,39.27,29.14,40.27z M27.97,35.48c0.02-0.09,0.04-0.19,0.06-0.28c-1.11-0.36-2.21-0.71-3.32-1.07
		c-0.07,0.07-0.13,0.14-0.2,0.22c0.15,0.23,0.26,0.61,0.45,0.65C25.96,35.2,26.97,35.32,27.97,35.48z"/>
	<path d="M48.49,18.9c-1.96,1.67-3.9,3.26-6.77,2.14c2.13,0.19,3.63-1,5-2.35c1.37-1.36,2.22-3.03,2.58-4.92
		c-0.74-0.09-1.45-0.16-2.14-0.3c-0.08-0.02-0.06-0.46-0.1-0.84c0.93,0.13,1.71,0.25,2.78,0.4c0.1-1.26,0.2-2.52,0.3-3.78
		c-0.08,0-0.17,0-0.25,0c-0.56,0.76-1.11,1.51-1.67,2.27c-0.07-0.05-0.13-0.09-0.2-0.14c0.26-0.78,0.52-1.56,0.79-2.35
		c-1.14,0.85-1.96,2.01-3.7,2c1.29-1.18,2.54-2.27,2.69-4.06c-0.7,1.73-1.97,2.85-3.7,3.42c-0.59,0.2-1.25,0.2-1.89,0.24
		c-0.16,0.01-0.33-0.17-0.49-0.26c0.11-0.18,0.18-0.43,0.35-0.53c0.28-0.18,0.62-0.27,0.93-0.39c2.91-1.06,4.16-3.04,3.82-6.04
		c-0.02-0.14,0.06-0.3,0.11-0.52c1.45,0.49,2.36,1.53,3.11,2.67c2.1,3.18,1.78,6.72,1.27,10.2c-0.2,1.38-0.97,2.72-1.67,3.97
		c-0.74,1.31-1.64,2.54-2.58,3.72c-1.82,2.31-1.65,4.82-0.93,7.43c0.49,1.78,0.84,3.58,0.29,5.4c-0.38,1.28-0.95,2.47-2.21,3.15
		c-0.26,0.14-0.56,0.26-0.85,0.27c-0.25,0.01-0.51-0.16-0.76-0.25c0.11-0.26,0.15-0.66,0.34-0.76c2.7-1.46,2.48-3.92,2.19-6.38
		c-0.16-1.37-0.55-2.72-0.68-4.1c-0.21-2.32,0.61-4.37,1.94-6.25C47.09,20.94,47.78,19.91,48.49,18.9z"/>
	<path d="M40.77,11.91c0,0.96-0.1,1.94,0.02,2.88c0.29,2.43,0.19,4.79-0.84,7.18c0.59-0.03,1.13-0.06,1.66-0.09
		c-2.05,1.01-3.72,2.36-4.54,4.58c-0.07-0.04-0.15-0.07-0.22-0.11c0.08-0.32,0.12-0.66,0.23-0.96c0.62-1.64,1.24-3.28,1.9-4.91
		c0.72-1.78,0.52-3.6,0.26-5.41c-0.55-3.9,0.47-7.22,3.49-9.83c0.53-0.46,1.2-0.74,1.75-1.17c0.57-0.44,1.08-0.96,1.58-1.42
		c0.4,0.85,0.05,1.96-1.04,2.78c-1.29,0.98-2.69,1.88-3.35,3.42c-1.12,2.62-0.99,2.6,1.54,3.18c0.27,0.06,0.51,0.32,0.76,0.48
		c-0.25,0.19-0.47,0.5-0.74,0.54c-1.01,0.15-1.76-0.3-2.21-1.26C40.93,11.83,40.85,11.87,40.77,11.91z"/>
	<path d="M48.18,31.93c-0.89-2.2-0.96-4.44-0.08-6.6c0.86-2.11,1.99-4.12,2.86-6.23c1.5-3.62,2.02-7.36,0.73-11.17
		c-0.51-1.53-1.15-3.02-1.79-4.5c-0.42-0.97-1.08-1.71-2.27-1.77c-0.2-0.01-0.38-0.33-0.58-0.5c0.21-0.22,0.39-0.58,0.63-0.62
		c0.92-0.18,1.69,0.21,2.2,0.95c3.14,4.59,4.29,9.58,3.21,15.1c-0.44,2.23-1.47,4.18-2.52,6.12C49.01,25.59,48.15,28.64,48.18,31.93
		z"/>
	<path d="M17.04,69.69c-0.11,1.12-0.23,2.24-0.34,3.36c-0.08,0-0.15,0-0.23,0.01c-0.19-1.05-0.35-2.1-0.57-3.14
		c-0.15-0.72-0.27-1.48-0.59-2.13c-0.88-1.75-0.55-3.33,0.48-4.86c0.22-0.33,0.42-0.68,0.77-1.27c-0.13,1.02-0.29,1.79-0.3,2.56
		c-0.01,0.71-0.11,1.59,0.24,2.12c1.13,1.72,2.43,3.33,3.71,4.95c0.3,0.38,0.76,0.62,1.15,0.93c-0.03,0.08-0.07,0.16-0.1,0.24
		c-0.68-0.21-1.35-0.41-2.03-0.62c-0.18,1.88,0.92,2.88,2.77,2.6c0.5-0.08,1.02,0.01,1.73,0.02c-0.56,1.07-1.33,1.01-1.92,0.91
		c-0.95-0.15-1.91-0.44-2.8-0.84c-1.03-0.46-1.15-1.49-1.25-2.5c-0.08-0.81-0.25-1.6-0.39-2.41C17.25,69.64,17.14,69.67,17.04,69.69
		z"/>
	<path d="M42.45,28.27c-0.53,0.64-1.06,1.29-1.59,1.93c0.89-2.96,3.18-5.38,2.99-8.73c1.03,0.82,1.11,2.23,0.6,3.63
		c-0.29,0.79-0.39,1.67-0.47,2.52c-0.17,1.84-0.12,3.71-0.48,5.51c-0.18,0.91-1.06,1.69-1.79,2.37c0.39-2.37,0.77-4.74,1.16-7.1
		C42.73,28.36,42.59,28.32,42.45,28.27z"/>
	<path d="M25.42,64.15c0.98,0.51,1.1,1.42,0.97,2.18c-0.31,1.84-0.82,3.65-1.31,5.7C23.76,69.2,25.8,66.75,25.42,64.15z"/>
	<path d="M42.12,17.41c1.06-0.94,2.01-0.98,2.91-0.01c0.19,0.2,0.2,0.56,0.29,0.85c-0.3,0.03-0.61,0.1-0.91,0.07
		c-0.25-0.03-0.48-0.18-0.72-0.28c0.18,0.41,0.33,0.76,0.48,1.11c-0.26,0.11-0.6,0.38-0.76,0.29c-0.37-0.19-0.72-0.51-0.96-0.86
		C42.25,18.3,42.24,17.9,42.12,17.41z"/>
	<path d="M25.25,71.79c0.53,0.33,0.99,0.61,1.44,0.89c-0.28,0.16-0.56,0.46-0.85,0.46C25.23,73.13,24.77,72.88,25.25,71.79z"/>
</g>
<g>
	<path d="M81.59,36.18h17.67v3.23H81.59v11.75h19.63v3.18h-23.1V21.06h23.1v3.18H81.59V36.18z"/>
	<path d="M132.44,30.07h-3.43c-0.78-4.06-3.72-6.71-9.3-6.71c-5.04,0-8.37,2.45-8.37,6.31c0,3.04,2.4,4.89,6.8,5.68l5.04,0.98
		c5.92,1.13,9.25,3.92,9.25,8.66c0,6.07-4.94,10.08-12.38,10.08c-7.98,0-13.07-4.16-13.85-11.36h3.43
		c0.83,5.19,4.46,8.22,10.57,8.22c5.34,0,8.71-2.59,8.71-6.56c0-2.79-1.96-4.89-6.27-5.68l-5.78-1.13c-6.12-1.13-9.2-4.21-9.2-8.71
		c0-5.73,4.75-9.54,11.8-9.54C126.23,20.32,131.61,23.51,132.44,30.07z"/>
	<path d="M167.54,42.65h3.62c-1.62,7.34-7.69,12.38-15.86,12.38c-9.59,0-17.28-7.54-17.28-17.33c0-9.79,7.69-17.33,17.28-17.33
		c8.17,0,14.25,5.04,15.86,12.38h-3.62c-1.42-5.48-5.97-9.06-12.24-9.06c-7.73,0-13.75,6.02-13.75,14c0,7.98,6.02,14,13.75,14
		C161.57,51.7,166.12,48.13,167.54,42.65z"/>
	<path d="M212.23,37.7c0,9.59-7.73,17.33-17.33,17.33c-9.59,0-17.33-7.73-17.33-17.33c0-9.59,7.73-17.33,17.33-17.33
		C204.49,20.37,212.23,28.11,212.23,37.7z M208.7,37.7c0-7.73-6.07-14.1-13.85-14.1c-7.73,0-13.8,6.36-13.8,14.1
		c0,7.73,6.07,14.1,13.8,14.1C202.63,51.8,208.7,45.44,208.7,37.7z"/>
	<path d="M223.58,42.25v12.09h-3.48V21.06h12.38c7.49,0,12.68,4.06,12.68,10.62c0,5.43-3.62,9.2-9.2,10.28l10.67,12.38h-4.36
		l-10.43-12.09H223.58z M232.39,39.07c5.43,0,9.3-2.79,9.3-7.39c0-4.65-3.87-7.44-9.3-7.44h-8.81v14.83H232.39z"/>
	<path d="M264.01,24.24v30.1h-3.48v-30.1h-12.38v-3.18h28.24v3.18H264.01z"/>
</g>
<g>
	<path d="M292.76,47.59v6.75h-8.27V21.06h8.27v15.13l13.26-15.13h9.79l-12.68,14.59l13.75,18.7H306.8l-9.3-12.24L292.76,47.59z"/>
	<path d="M328.78,48.62l-2.2,5.73h-8.81l14.15-33.48h7.88l14.1,33.48h-8.76l-2.25-5.73H328.78z M335.83,30.51l-4.31,11.06h8.62
		L335.83,30.51z"/>
	<path d="M369.16,28.45v25.89h-8.27V28.45h-10.62v-7.39h29.47v7.39H369.16z"/>
	<path d="M387.08,48.62l-2.2,5.73h-8.81l14.15-33.48h7.88l14.1,33.48h-8.76l-2.25-5.73H387.08z M394.13,30.51l-4.31,11.06h8.62
		L394.13,30.51z"/>
	<path d="M440.48,54.35h-24.72V21.06h8.27v25.99h16.45V54.35z"/>
	<path d="M477.24,37.7c0,9.69-7.59,17.33-17.67,17.33c-10.03,0-17.62-7.64-17.62-17.33c0-9.69,7.59-17.33,17.62-17.33
		C469.65,20.37,477.24,28.01,477.24,37.7z M468.82,37.7c0-5.24-3.87-9.64-9.25-9.64c-5.38,0-9.25,4.41-9.25,9.64
		c0,5.24,3.87,9.64,9.25,9.64C464.95,47.35,468.82,42.94,468.82,37.7z"/>
	<path d="M516.25,54.35h-6.17l-0.34-4.01c-2.4,2.94-5.87,4.7-10.52,4.7c-10.43,0-17.72-7.44-17.72-16.99
		c0-10.38,7.64-17.67,17.82-17.67c8.13,0,15.17,4.6,16.59,12.53h-8.66c-1.47-3.87-4.8-4.94-7.78-4.94c-5.68,0-9.59,4.01-9.59,9.89
		c0,5.24,3.77,9.5,9.69,9.5c3.87,0,6.8-1.91,8.42-5.09l-9.54-0.1v-6.51h17.82V54.35z"/>
	<path d="M531.08,34.32h14.73v7.05h-14.73v5.78h16.89v7.2h-25.16V21.06h25.16v7.2h-16.89V34.32z"/>
	<path d="M568.82,28.45v25.89h-8.27V28.45h-10.62v-7.39h29.47v7.39H568.82z"/>
</g>
</svg>
