<?xml version="1.0" encoding="utf-8"?>
<!-- Generator: Adobe Illustrator 28.1.0, SVG Export Plug-In . SVG Version: 6.00 Build 0)  -->
<svg version="1.1" id="Layer_1" xmlns="http://www.w3.org/2000/svg" xmlns:xlink="http://www.w3.org/1999/xlink" x="0px" y="0px"
	 viewBox="0 0 378.68 47.64" style="enable-background:new 0 0 378.68 47.64;" xml:space="preserve">
<g>
	<g>
		<path d="M36.21,6.51c0.24,0.43,0.44,0.88,0.72,1.29c0.45,0.67,0.62,1.36,0.39,2.16c-0.11,0.38-0.07,0.81-0.13,1.21
			c-0.15,0.96-0.74,1.88-1.84,1.76c-0.43,0.98-0.75,1.19-2.25,1.46c0.16,0.26,0.24,0.55,0.43,0.7c0.96,0.72,1.58,1.67,2.02,2.76
			c0.48,1.19,1.16,2.22,2.01,3.17c1.15,1.3,2.01,2.78,2.74,4.35c0.35,0.75,0.72,1.5,1.09,2.25c0.19,0.4,0.26,0.79-0.08,1.13
			c-1.05,1.06-2.05,2.16-3.17,3.15c-2.31,2.03-5.04,3.41-7.7,4.9c-1.45,0.81-2.94,1.08-4.55,0.71c-0.21-0.05-0.44,0.01-0.65,0.06
			c0.69,0.09,1.37,0.2,2.06,0.25c0.44,0.03,0.9,0.02,1.31-0.09c0.5-0.14,0.83,0.03,1.09,0.41c1.1,1.6,1.71,3.33,1.45,5.3
			c1,0.22,1.58-0.11,2.06-0.99c0.63-1.15,1.57-1.94,2.93-2.06c0.66-0.06,1.25-0.2,1.69-0.75c0.07-0.09,0.27-0.09,0.4-0.13
			c0.04,0.16,0.15,0.36,0.09,0.47c-0.14,0.3-0.36,0.56-0.64,0.97c0.4-0.18,0.68-0.31,0.96-0.44c0.18-0.08,0.36-0.2,0.54-0.2
			c0.17,0,0.33,0.14,0.5,0.22c-0.1,0.14-0.19,0.28-0.3,0.41c-0.04,0.05-0.13,0.05-0.19,0.08c0.23,0.56,0.23,0.56-0.66,0.84
			c0.19,0.43-0.12,0.52-0.43,0.7c-0.72,0.41-1.39,0.91-2.1,1.34c-3.03,1.85-6.3,3.11-9.83,3.49c-4.84,0.53-9.44-0.4-13.63-2.93
			c-4.85-2.92-8.33-6.99-10-12.48c-0.68-2.25-0.85-4.52-0.24-6.81c0.45-1.7,1.56-2.99,2.78-4.2c0.15-0.15,0.32-0.28,0.47-0.41
			c-0.34-0.86,0.35-2.19,1.11-2.15c0.07-0.37,0.13-0.7,0.66-0.38c0.29,0.17,0.68,0.18,1.03,0.22c0.1,0.01,0.23-0.07,0.31-0.15
			c1.25-1.26,2.05-2.74,2.24-4.52c0.06-0.6,0.14-1.19,0.2-1.79c0.13-1.1,0.73-1.9,1.47-2.68c0.36-0.38,0.77-0.49,1.21-0.67
			c-0.09-0.12-0.16-0.22-0.29-0.41c0.25,0.14,0.41,0.22,0.6,0.33c0-0.19,0-0.35,0-0.61c0.11,0.21,0.18,0.34,0.2,0.38
			c0.21-0.19,0.42-0.39,0.64-0.59c0.03,0.02,0.05,0.04,0.08,0.06c-0.03,0.09-0.06,0.18-0.09,0.26c0.03,0.02,0.07,0.05,0.08,0.04
			c0.72-0.46,1.45-0.11,2.15,0.03c0.67,0.14,1.34,0.38,1.97,0.66c0.67,0.3,1.29,0.7,1.89,1.03c0.15-0.76,0.24-1.61,0.48-2.4
			c0.13-0.42,0.55-0.75,0.82-1.13c0.9-1.24,1.98-2.23,3.58-2.45c1.12-0.15,2.13,0.22,3.1,0.72c0.31,0.16,0.6,0.35,0.96,0.56
			c-0.06-0.75,0-1.4,0.78-1.85c0.02,0.72-0.1,1.43,0.61,1.89c0.47-0.76,1.2-0.94,2.03-0.86c0.02-0.04,1.31-0.14,2.32,1.24
			C35.78,5.44,36.27,6.46,36.21,6.51z M19.56,17.87c-0.36,0.58-0.6,1.15-1,1.57c-0.28,0.29-0.4,0.55-0.42,0.91
			c-0.02,0.42-0.24,0.71-0.65,0.69c-0.5-0.03-1.02-0.1-1.48-0.27c-0.67-0.25-1.23-0.26-1.7,0.36c-0.17,0.22-0.39,0.42-0.59,0.61
			c-0.31,0.31-0.3,0.53,0.04,0.87c0.59,0.58,1.09,1.25,1.63,1.88c0.13,0.15,0.25,0.3,0.4,0.42c0.81,0.66,1.62,1.32,2.44,1.97
			c0.89,0.71,1.88,1.23,2.95,1.6c0.24-0.51,0.46-0.99,0.68-1.48c-1.45-0.24-2.59-1.61-2.87-3.32c-0.22-1.34,0.09-1.91,0.04-2.02
			c-0.12-0.25,0.2-0.42,0.33-0.34c0.07,0.03,0.12,0.06,0.2,0.06c0.31,0,1.79-0.06,3.61-0.51s3.26-0.96,3.84-1.49
			c0.85-0.77,1.54-1.71,2.29-2.58c0.23-0.26,0.26-0.55,0.05-0.82c-0.28-0.37-0.6-0.71-0.94-1.12c-0.4,0.45-0.7,0.82-1.05,1.14
			c-0.14,0.13-0.49,0.23-0.59,0.15c-0.39-0.31-0.82-0.59-1.19-0.89c-0.32-0.26-0.59-0.29-0.9-0.36c-0.04-0.19-0.07-0.35-0.12-0.58
			c-0.24,0.16-0.42,0.29-0.61,0.4c-0.1,0.06-0.29,0.13-0.32,0.09c-0.08-0.09-0.12-0.24-0.13-0.36c-0.02-0.46,0-0.92-0.03-1.38
			c-0.01-0.22-0.03-0.52-0.17-0.65c-0.47-0.4-0.99-0.74-1.46-1.09c0,0.36,0,0.74,0,1.18c-0.31-0.25-0.57-0.47-0.89-0.73
			c0,0.98,0.01,1.87-0.01,2.75c0,0.19-0.07,0.47-0.2,0.55c-0.39,0.23-0.38,0.56-0.33,0.92c0.05,0.35,0.15,0.69,0.18,1.04
			c0.03,0.34-0.01,0.68-0.02,1.02c-0.34-0.07-0.69-0.14-1.03-0.21C19.48,17.87,19.45,17.87,19.56,17.87z M27.67,33.17
			c0.42,0.74,0.77,1.36,1.15,2.02c2.9-2.21,5.41-4.81,7.36-7.99c-0.61-0.79-1.26-1.62-1.88-2.43C32.04,27.64,29.8,30.47,27.67,33.17
			z M18.02,37.62c0.72,0.12,1.4,0.24,2.12,0.37c-0.28-1.7-0.1-3.29,0.23-4.76c-1.14-0.77-2.22-1.5-3.17-2.14c0,0.86,0,1.82,0,2.78
			c0,0.1,0.03,0.21,0.07,0.31C17.81,35.25,18.14,36.37,18.02,37.62z M35.1,11.57c0.82,0.06,1.03-0.23,0.75-0.95
			C35.61,10.94,35.37,11.23,35.1,11.57z M35.38,12.13c0.01,0.18,0.02,0.35,0.04,0.69c0.33-0.32,0.55-0.54,0.77-0.76
			c-0.03-0.03-0.06-0.07-0.09-0.1C35.88,12.01,35.66,12.06,35.38,12.13z"/>
	</g>
	<path d="M23.82,47.64C10.69,47.64,0,36.96,0,23.82S10.69,0,23.82,0c13.13,0,23.82,10.69,23.82,23.82S36.96,47.64,23.82,47.64z
		 M23.82,1.14c-12.51,0-22.68,10.18-22.68,22.68S11.31,46.5,23.82,46.5S46.5,36.33,46.5,23.82S36.33,1.14,23.82,1.14z"/>
</g>
<g>
	<path d="M245.79,12.13c8.68,0,14.13,4.71,14.13,12.22c0,7.8-5.69,12.66-14.82,12.66h-4.46v8.49h-8.29V12.13H245.79z M245.59,29.75
		c3.68,0,6.03-2.11,6.03-5.4c0-2.99-2.35-4.91-6.03-4.91h-4.95v10.3H245.59z"/>
	<path d="M271.64,45.49h-8.29V12.13h8.29V45.49z"/>
	<path d="M311.57,45.49h-6.18l-0.34-4.02c-2.4,2.94-5.89,4.71-10.55,4.71c-10.45,0-17.76-7.46-17.76-17.02
		c0-10.4,7.65-17.71,17.86-17.71c8.14,0,15.21,4.61,16.63,12.56h-8.68c-1.47-3.88-4.81-4.95-7.8-4.95c-5.69,0-9.62,4.02-9.62,9.91
		c0,5.25,3.78,9.52,9.71,9.52c3.88,0,6.82-1.91,8.44-5.1l-9.57-0.1v-6.53h17.86V45.49z"/>
	<path d="M326.44,25.43h14.77v7.06h-14.77v5.79h16.93v7.21h-25.22V12.13h25.22v7.21h-16.93V25.43z"/>
	<path d="M356.36,35.83v9.67h-8.29V12.13h14.62c8.24,0,13.79,4.51,13.79,11.73c0,4.66-2.4,8.34-6.38,10.35l8.59,11.28h-10.01
		l-7.16-9.67H356.36z M362.49,28.37c3.19,0,5.74-1.77,5.74-4.51c0-2.7-2.55-4.42-5.74-4.42h-6.13v8.93H362.49z"/>
</g>
<g>
	<path d="M68.59,45.36h-3.48V12.07h3.48V45.36z"/>
	<path d="M106.13,45.36h-2.99L81.41,18.34v27.02h-3.48V12.07h2.89l21.83,27.31V12.07h3.48V45.36z"/>
	<path d="M127.62,15.25v30.1h-3.48v-30.1h-12.38v-3.18H140v3.18H127.62z"/>
	<path d="M149.11,45.36h-3.48V12.07h3.48V45.36z"/>
	<path d="M190.62,45.36h-3.48l0.05-25.65L175.74,38.8h-2.35l-11.55-19.24l0.1,25.8h-3.48V12.07h2.69l13.41,22.52l13.41-22.52h2.64
		V45.36z"/>
	<path d="M203.49,27.2h17.67v3.23h-17.67v11.75h19.63v3.18h-23.1V12.07h23.1v3.18h-19.63V27.2z"/>
</g>
</svg>
