<?xml version="1.0" encoding="utf-8"?>
<svg fill="#FFF" version="1.1" xmlns="http://www.w3.org/2000/svg" viewBox="0 0 383.71 75.54">
<g>
	<g>
		<path d="M11.79,21.07c-2.14,0.19-3.64-1-5.01-2.36c-1.38-1.36-2.22-3.04-2.59-4.93c0.74-0.09,1.45-0.16,2.15-0.3
			c0.08-0.02,0.06-0.46,0.1-0.84c-0.93,0.13-1.72,0.25-2.79,0.4c-0.1-1.27-0.2-2.53-0.3-3.79c0.08,0,0.17,0,0.25,0
			c0.56,0.76,1.11,1.51,1.67,2.27c0.07-0.05,0.13-0.09,0.2-0.14C5.22,10.59,4.96,9.81,4.7,9.03c1.14,0.85,1.97,2.02,3.71,2
			c-1.3-1.18-2.54-2.27-2.69-4.07c0.7,1.73,1.98,2.85,3.71,3.42c0.59,0.2,1.26,0.2,1.89,0.24c0.16,0.01,0.33-0.17,0.49-0.26
			c-0.11-0.18-0.18-0.43-0.35-0.53c-0.28-0.18-0.62-0.27-0.93-0.39C7.61,8.38,6.35,6.4,6.69,3.4c0.02-0.14-0.06-0.3-0.11-0.52
			C5.13,3.37,4.22,4.41,3.47,5.55c-2.1,3.18-1.78,6.74-1.27,10.22c0.2,1.38,0.97,2.72,1.67,3.97c0.74,1.31,1.64,2.54,2.58,3.73
			c1.83,2.31,1.65,4.83,0.94,7.44c-0.49,1.78-0.84,3.59-0.29,5.41c0.38,1.28,0.95,2.48,2.21,3.15c0.26,0.14,0.57,0.26,0.85,0.27
			c0.25,0.01,0.51-0.16,0.76-0.25c-0.11-0.26-0.15-0.66-0.34-0.76c-2.71-1.46-2.49-3.93-2.19-6.39c0.17-1.38,0.55-2.73,0.68-4.1
			c0.21-2.33-0.61-4.38-1.94-6.26c-0.72-1.01-1.41-2.04-2.11-3.06C6.98,20.6,8.92,22.19,11.79,21.07z M12.73,14.82
			c-0.29,2.43-0.19,4.8,0.84,7.2c-0.59-0.03-1.13-0.06-1.67-0.09c2.05,1.01,3.72,2.36,4.55,4.59c0.07-0.04,0.15-0.07,0.22-0.11
			c-0.08-0.32-0.12-0.66-0.23-0.97c-0.62-1.64-1.24-3.29-1.9-4.91c-0.72-1.78-0.52-3.61-0.26-5.42c0.56-3.9-0.47-7.24-3.5-9.85
			c-0.53-0.46-1.2-0.74-1.76-1.17C8.46,3.64,7.95,3.12,7.44,2.66c-0.4,0.86-0.05,1.96,1.04,2.79c1.29,0.98,2.7,1.89,3.36,3.43
			c1.13,2.62,1,2.6-1.54,3.19c-0.28,0.06-0.51,0.32-0.76,0.48c0.25,0.19,0.47,0.5,0.74,0.54c1.01,0.15,1.76-0.3,2.21-1.26
			c0.08,0.04,0.17,0.07,0.25,0.11C12.75,12.89,12.84,13.87,12.73,14.82z M5.4,25.38c-0.86-2.12-1.99-4.13-2.87-6.24
			C1.03,15.5,0.52,11.76,1.8,7.94c0.52-1.53,1.15-3.02,1.8-4.5c0.42-0.97,1.08-1.71,2.27-1.77c0.2-0.01,0.39-0.33,0.58-0.5
			C6.24,0.95,6.06,0.59,5.82,0.54c-0.92-0.18-1.7,0.21-2.2,0.96c-3.14,4.6-4.3,9.6-3.22,15.12c0.44,2.24,1.47,4.19,2.53,6.14
			c1.57,2.89,2.43,5.94,2.4,9.24C6.22,29.78,6.29,27.55,5.4,25.38z M36.86,73.19c0.08,0,0.15,0,0.23,0.01
			c0.19-1.05,0.35-2.11,0.57-3.15c0.15-0.72,0.27-1.49,0.59-2.14c0.88-1.76,0.55-3.33-0.48-4.87c-0.22-0.33-0.42-0.68-0.78-1.27
			c0.13,1.02,0.29,1.79,0.3,2.56c0.01,0.72,0.11,1.59-0.24,2.12c-1.13,1.72-2.44,3.34-3.72,4.96c-0.3,0.38-0.76,0.63-1.15,0.93
			c0.04,0.08,0.07,0.16,0.11,0.24c0.68-0.21,1.36-0.41,2.03-0.62c0.18,1.89-0.92,2.89-2.77,2.6c-0.5-0.08-1.02,0.01-1.73,0.02
			c0.56,1.07,1.33,1.01,1.93,0.92c0.96-0.15,1.92-0.44,2.8-0.84c1.03-0.46,1.15-1.49,1.26-2.5c0.08-0.81,0.25-1.61,0.39-2.41
			c0.1,0.03,0.21,0.05,0.31,0.08C36.63,70.94,36.75,72.07,36.86,73.19z M12.65,30.26c-0.89-2.96-3.19-5.39-3-8.75
			c-1.03,0.82-1.11,2.24-0.6,3.64c0.29,0.8,0.39,1.67,0.47,2.52C9.7,29.52,9.64,31.4,10,33.2c0.18,0.91,1.06,1.69,1.8,2.38
			c-0.39-2.37-0.77-4.74-1.16-7.12c0.14-0.05,0.28-0.09,0.42-0.14C11.59,28.97,12.12,29.62,12.65,30.26z M27.15,66.46
			c0.31,1.84,0.83,3.66,1.31,5.71c1.32-2.84-0.72-5.3-0.34-7.9C27.14,64.78,27.02,65.69,27.15,66.46z M8.49,17.43
			C8.3,17.63,8.29,18,8.2,18.29c0.3,0.03,0.61,0.1,0.91,0.07c0.25-0.03,0.48-0.18,0.72-0.28c-0.18,0.41-0.33,0.76-0.48,1.11
			c0.26,0.11,0.6,0.38,0.76,0.29c0.37-0.19,0.72-0.51,0.96-0.86c0.19-0.28,0.2-0.68,0.33-1.17C10.34,16.51,9.39,16.46,8.49,17.43z
			 M26.85,72.81c0.28,0.16,0.57,0.46,0.85,0.46c0.61,0,1.08-0.26,0.59-1.35C27.76,72.25,27.3,72.53,26.85,72.81z"/>
		<path d="M10.34,0c0.59,0.18,1.23,0.59,1.77,0.49c1.94-0.37,3.31,0.65,4.51,1.81c1.25,1.21,1.93,2.87,2.27,4.58
			c0.31,1.58,0.41,3.2,0.59,4.68c2.9-0.74,5.9-1.51,8.94-2.29c-0.09-0.58-0.18-1.13-0.27-1.72c0.61,0.34,1.27,0.54,1.68,0.98
			C30.29,9.03,30.7,9,31.26,8.86c3.56-0.86,7.17-1.12,10.82-0.88c0.14,0.01,0.27,0.08,0.65,0.2c-3.94,0.62-7.6,1.19-11.25,1.76
			c0.86,1.76,1.74,3.39,2.45,5.09c0.71,1.7,1.23,3.47,1.85,5.25c7.1-6.12,7.9-5.23,10.17-5.29c-2.11,1.43-4.63,2.2-6.26,4.22
			c3.32,1.15,6.39,2.55,8.74,5.26c1.98-2.09,3.25-4.35,3.65-7.18c0.47-3.25-0.51-5.8-3.05-7.77c-0.54-0.42-1.2-0.68-2.06-1.15
			c3.24,0.43,5.69,3.01,6.32,5.72c1.09,4.64-0.92,8.28-3.77,11.62c-0.1,0.54-0.29,1.03-0.47,1.53c-0.39,1.15-0.42,1.15-1.28,0.28
			c-1.25,1.11-2.41,2.36-3.78,3.32c-2.49,1.73-5.09,3.29-7.66,4.9c-0.82,0.52-1.42,1.96-1.05,2.86c0.3,0.75,0.67,1.48,1.12,2.15
			c1.34,2.03,1.99,4.25,1.62,6.65c-0.38,2.51-0.96,4.99-1.43,7.48c-0.16,0.82-0.27,1.65-0.41,2.5c0.43,0,0.73,0,1.21,0
			c-0.21,0.48-0.37,0.85-0.56,1.28c0.66,0.34,0.36,0.77-0.08,1.08c0.34,0.17,0.65,0.31,0.96,0.46c-0.27,0.26-0.51,0.67-0.83,0.75
			c-1.06,0.26-2.15,0.41-3.16,0.59c0.23,0.83,0.42,1.8,0.77,2.71c0.3,0.79-0.03,1.06-0.61,1.14c0.03,0.64,0.06,1.21,0.08,1.77
			c-0.14,0.04-0.29,0.09-0.43,0.13c-0.3-0.47-0.6-0.94-0.85-1.32c-0.33,0.06-0.73,0.13-1.21,0.21c0.08,0.78,0.17,1.62,0.25,2.46
			c0.09,0.94,0.25,1.89,0.22,2.83c-0.05,1.28-0.56,1.79-1.39,1.8c0.16-0.91,0.33-1.84,0.5-2.77c-0.09-0.01-0.19-0.03-0.28-0.04
			c-0.45,0.33-0.9,0.65-1.35,0.98c-0.08-0.07-0.17-0.15-0.25-0.22c1.43-1.91,1.06-4.1,1.24-6.24c0.2-2.37-1.13-4-2.34-5.75
			c2.19,1.08,3,3.18,4.11,5.07c-0.35-1.53-0.7-3.06-1.05-4.59c0.07-0.02,0.15-0.04,0.22-0.06c0.13,0.13,0.25,0.27,0.38,0.4
			c0.05-0.03,0.11-0.07,0.16-0.1c-0.45-1.32-0.9-2.63-1.32-3.87c-1.2,0.16-2.2,0.3-3.16,0.43c-0.67,2.59,0.8,4.93,0.79,7.46
			c-1.6-0.88-0.96-2.74-1.87-3.97c-0.59,0.83-1.17,1.65-1.75,2.46c-0.11-0.06-0.23-0.12-0.34-0.18c-0.33-0.82,0.04-1.43,0.6-2.09
			c0.92-1.09,1.88-2.21,1.65-3.85c-0.58-0.09-1.07-0.16-1.54-0.24c-1.03,1.64-1.67,3.36-1.96,5.23c-0.15,0.98-0.53,1.94-0.9,2.87
			c-0.07,0.19-0.56,0.21-0.85,0.31c-0.03-0.27-0.16-0.58-0.09-0.82c0.26-0.79,0.59-1.56,0.96-2.52c-0.42,0.24-0.65,0.38-0.89,0.51
			c-0.1-0.07-0.21-0.13-0.31-0.2c1.02-1.85,1.88-3.78,2.81-5.25c-0.08-0.72-0.27-1.46-0.16-1.51c0.72-0.3,0.56-0.9,0.4-1.29
			c-0.68-1.69-1.34-3.4-2.21-4.99c-1.51-2.79-3.17-5.49-4.74-8.24c-0.26-0.46-0.37-0.98-1.09-1c-0.18-0.01-0.48-0.46-0.5-0.73
			c-0.05-0.6,0.16-1.25,0.03-1.82c-0.21-0.95-0.6-1.86-0.94-2.78c-0.23-0.61-0.51-1.2-0.77-1.8c0.08-0.06,0.17-0.11,0.25-0.17
			c0.25,0.3,0.55,0.56,0.73,0.89c0.4,0.74,0.71,1.54,1.14,2.26c0.15,0.25,0.58,0.56,0.79,0.5c1.1-0.31,2.17-0.72,3.24-1.1
			c-0.23-0.68-0.42-1.23-0.61-1.79c0.41,0.23,0.57,0.6,0.84,0.86c0.23,0.22,0.61,0.49,0.88,0.45c3.18-0.47,3.74-1.45,2.63-4.48
			c-0.38-1.04-0.7-2.11-1.03-3.18c-0.68-2.15-0.26-4.31,0.08-6.44c0.15-0.92,0.53-1.81,0.8-2.72c0.14,0.03,0.27,0.06,0.41,0.09
			c-0.05,0.43-0.13,0.85-0.15,1.28c-0.08,1.82-0.39,3.67-0.14,5.45c0.4,2.87,1.17,5.68,1.83,8.7c1.09-0.38,2.23-0.75,3.35-1.2
			c0.26-0.11,0.55-0.5,0.56-0.78c0.17-2.43,0.3-4.87,0.4-7.31c0.04-1.08,0.24-2.07,0.97-2.93c0.22-0.26,0.43-0.69,0.37-0.99
			c-0.6-2.74-1.27-5.46-1.9-8.19c-0.13-0.55-0.37-0.71-0.93-0.57c-2.79,0.7-5.59,1.36-8.37,2.08c-0.24,0.06-0.57,0.53-0.54,0.78
			c0.14,1.34,0.16,2.76,0.64,3.99c0.83,2.14,1.07,4.3,1.2,6.55c0.08,1.38,0.58,2.75,0.92,4.11c0.11,0.42,0.38,0.81,0.45,1.24
			c0.12,0.78,0.14,1.58,0.21,2.37c-0.66-1.22-1.1-2.42-1.65-3.57c-0.86-1.79-1.38-3.63-1.47-5.65c-0.06-1.39-0.45-2.81-0.91-4.13
			c-0.65-1.83-0.96-3.68-0.84-5.58c0.18-2.82-0.09-5.53-1.12-8.19c-0.77-2.01-2.3-3.11-3.9-3.86c0.88,1.19,1.96,2.45,2.82,3.86
			c1.74,2.86,1.63,5.95,0.7,9.03c-0.45,1.49-0.42,2.9-0.18,4.4c0.32,1.99,1.46,3.61,2.32,5.34c0.88,1.78,1.21,3.64,1.58,5.53
			c0.11,0.57,0.11,1.16,0.16,1.74c-0.29-0.15-0.4-0.33-0.48-0.53c-1.18-2.79-2.29-5.61-3.54-8.37c-1.24-2.76-2.32-5.43-1.05-8.55
			c0.65-1.61,0.88-3.39,0.48-5.2c-0.35-1.57-0.88-3.02-1.74-4.39c-1.47-2.35-3.3-3.16-5.98-2.54C7.69,1.28,7.34,1.02,7.03,0.9
			c0.04-0.1,0.07-0.19,0.11-0.29C7.6,0.41,8.05,0.21,8.5,0C9.12,0,9.73,0,10.34,0z M32.73,39.94c-0.11-0.38-0.29-0.65-0.22-0.79
			c0.66-1.24,1.18-2.63,2.12-3.62c1.09-1.15,2.5-2.05,3.88-2.86c2.73-1.6,5.26-3.42,7.46-5.7c0.21-0.21,0.45-0.39,0.77-0.66
			c-2.92-2.39-6.16-3.9-10.2-4.41c-0.48,0.53-1.22,1.25-1.85,2.06c-1.2,1.53-2.38,3.08-3.47,4.7c-0.33,0.49-0.36,1.21-0.43,1.84
			c-0.02,0.18,0.32,0.4,0.54,0.67c-0.25,0.31-0.53,0.66-0.83,1.04c0.64,0.6,1.17,1.14,0.04,1.71c-0.11,0.06,0,0.64,0.08,0.97
			c0.04,0.16,0.24,0.27,0.45,0.49c-1.33,0.38-1.04,1.47-1.13,2.32c-0.33,3.21,0.25,6.34,0.84,9.48c0.33,1.76,0.35,3.57,0.5,5.36
			c0.02,0.24-0.05,0.59,0.07,0.69c0.7,0.53,1.08,1.03,0.16,1.72c-0.02,0.01,0.39,0.6,0.58,0.88c-0.73,0.95,0.38,1.71,0.42,2.58
			c0.16,0.05,0.22,0.09,0.28,0.08c1.61-0.21,2.54-0.76,2.63-2.73c0.14-2.86,0.91-5.67,1.23-8.53c0.25-2.32-0.41-4.46-1.83-6.38
			c-0.5-0.67-0.68-1.57-1.04-2.47C33.47,38.82,33.17,39.28,32.73,39.94z M30.01,53.65c-0.18-2.61-0.15-5.14-0.56-7.6
			c-0.49-2.89-0.82-5.76-0.74-8.69c0.01-0.34,0-0.67,0-1.01c-1.09,0.26-2.13,0.51-3.15,0.75c-0.68,5.65,1.3,10.99,1.72,16.54
			C28.18,53.65,29,53.65,30.01,53.65z M17.72,38.8c1,1.84,1.86,3.59,2.86,5.25c1.63,2.71,3.51,5.27,4.12,8.48
			c0.08,0.41,0.67,0.71,1.17,0.96c-0.43-5.51-1.38-10.79-4.15-15.57C20.41,38.2,19.2,38.47,17.72,38.8z M33.22,23.46
			c0.89-1.27,1.12-2.68,0.61-4.16c-0.58-1.69-1.2-3.37-1.82-5.05c-0.14-0.37-0.35-0.7-0.69-1c0.29,1.52,0.61,3.04,0.86,4.56
			c0.13,0.78,0.14,1.59,0.16,2.39c0.01,0.26-0.03,0.69-0.18,0.76c-1.3,0.55-0.97,1.79-1.16,2.77c-0.15,0.78-0.03,1.6-0.03,2.72
			C31.85,25.29,32.56,24.4,33.22,23.46z M24.39,37.25c-0.55,0.1-1.04,0.2-1.63,0.31c0.55,0.94,1.08,1.84,1.63,2.79
			C24.39,39.35,24.39,38.33,24.39,37.25z M28.57,35.05c0.19-0.04,0.3-0.43,0.45-0.65c-0.07-0.07-0.13-0.14-0.2-0.22
			c-1.11,0.36-2.21,0.72-3.32,1.07c0.02,0.09,0.04,0.19,0.06,0.28C26.57,35.39,27.58,35.26,28.57,35.05z"/>
		<path d="M5.01,18.93c1.97,1.67,3.9,3.26,6.78,2.14c-2.14,0.19-3.64-1-5.01-2.36c-1.38-1.36-2.22-3.04-2.59-4.93
			c0.74-0.09,1.45-0.16,2.15-0.3c0.08-0.02,0.06-0.46,0.1-0.84c-0.93,0.13-1.72,0.25-2.79,0.4c-0.1-1.27-0.2-2.53-0.3-3.79
			c0.08,0,0.17,0,0.25,0c0.56,0.76,1.11,1.51,1.67,2.27c0.07-0.05,0.13-0.09,0.2-0.14C5.22,10.59,4.96,9.81,4.7,9.03
			c1.14,0.85,1.97,2.02,3.71,2c-1.3-1.18-2.54-2.27-2.69-4.07c0.7,1.73,1.98,2.85,3.71,3.42c0.59,0.2,1.26,0.2,1.89,0.24
			c0.16,0.01,0.33-0.17,0.49-0.26c-0.11-0.18-0.18-0.43-0.35-0.53c-0.28-0.18-0.62-0.27-0.93-0.39C7.61,8.38,6.35,6.4,6.69,3.4
			c0.02-0.14-0.06-0.3-0.11-0.52C5.13,3.37,4.22,4.41,3.47,5.55c-2.1,3.18-1.78,6.74-1.27,10.22c0.2,1.38,0.97,2.72,1.67,3.97
			c0.74,1.31,1.64,2.54,2.58,3.73c1.83,2.31,1.65,4.83,0.94,7.44c-0.49,1.78-0.84,3.59-0.29,5.41c0.38,1.28,0.95,2.48,2.21,3.15
			c0.26,0.14,0.57,0.26,0.85,0.27c0.25,0.01,0.51-0.16,0.76-0.25c-0.11-0.26-0.15-0.66-0.34-0.76c-2.71-1.46-2.49-3.93-2.19-6.39
			c0.17-1.38,0.55-2.73,0.68-4.1c0.21-2.33-0.61-4.38-1.94-6.26C6.41,20.98,5.72,19.95,5.01,18.93z"/>
		<path d="M12.75,11.93c0,0.96,0.1,1.94-0.02,2.89c-0.29,2.43-0.19,4.8,0.84,7.2c-0.59-0.03-1.13-0.06-1.67-0.09
			c2.05,1.01,3.72,2.36,4.55,4.59c0.07-0.04,0.15-0.07,0.22-0.11c-0.08-0.32-0.12-0.66-0.23-0.97c-0.62-1.64-1.24-3.29-1.9-4.91
			c-0.72-1.78-0.52-3.61-0.26-5.42c0.56-3.9-0.47-7.24-3.5-9.85c-0.53-0.46-1.2-0.74-1.76-1.17C8.46,3.64,7.95,3.12,7.44,2.66
			c-0.4,0.86-0.05,1.96,1.04,2.79c1.29,0.98,2.7,1.89,3.36,3.43c1.13,2.62,1,2.6-1.54,3.19c-0.28,0.06-0.51,0.32-0.76,0.48
			c0.25,0.19,0.47,0.5,0.74,0.54c1.01,0.15,1.76-0.3,2.21-1.26C12.58,11.86,12.66,11.89,12.75,11.93z"/>
		<path d="M5.32,31.99c0.89-2.21,0.97-4.45,0.08-6.62c-0.86-2.12-1.99-4.13-2.87-6.24C1.03,15.5,0.52,11.76,1.8,7.94
			c0.52-1.53,1.15-3.02,1.8-4.5c0.42-0.97,1.08-1.71,2.27-1.77c0.2-0.01,0.39-0.33,0.58-0.5C6.24,0.95,6.06,0.59,5.82,0.54
			c-0.92-0.18-1.7,0.21-2.2,0.96c-3.14,4.6-4.3,9.6-3.22,15.12c0.44,2.24,1.47,4.19,2.53,6.14C4.49,25.64,5.36,28.69,5.32,31.99z"/>
		<path d="M36.52,69.82c0.12,1.12,0.23,2.24,0.35,3.36c0.08,0,0.15,0,0.23,0.01c0.19-1.05,0.35-2.11,0.57-3.15
			c0.15-0.72,0.27-1.49,0.59-2.14c0.88-1.76,0.55-3.33-0.48-4.87c-0.22-0.33-0.42-0.68-0.78-1.27c0.13,1.02,0.29,1.79,0.3,2.56
			c0.01,0.72,0.11,1.59-0.24,2.12c-1.13,1.72-2.44,3.34-3.72,4.96c-0.3,0.38-0.76,0.63-1.15,0.93c0.04,0.08,0.07,0.16,0.11,0.24
			c0.68-0.21,1.36-0.41,2.03-0.62c0.18,1.89-0.92,2.89-2.77,2.6c-0.5-0.08-1.02,0.01-1.73,0.02c0.56,1.07,1.33,1.01,1.93,0.92
			c0.96-0.15,1.92-0.44,2.8-0.84c1.03-0.46,1.15-1.49,1.26-2.5c0.08-0.81,0.25-1.61,0.39-2.41C36.31,69.77,36.41,69.8,36.52,69.82z"
			/>
		<path d="M11.06,28.32c0.53,0.65,1.06,1.29,1.59,1.94c-0.89-2.96-3.19-5.39-3-8.75c-1.03,0.82-1.11,2.24-0.6,3.64
			c0.29,0.8,0.39,1.67,0.47,2.52C9.7,29.52,9.64,31.4,10,33.2c0.18,0.91,1.06,1.69,1.8,2.38c-0.39-2.37-0.77-4.74-1.16-7.12
			C10.78,28.41,10.92,28.37,11.06,28.32z"/>
		<path d="M28.13,64.27c-0.99,0.51-1.1,1.42-0.97,2.19c0.31,1.84,0.83,3.66,1.31,5.71C29.79,69.33,27.75,66.87,28.13,64.27z"/>
		<path d="M11.4,17.45c-1.06-0.94-2.01-0.98-2.91-0.01C8.3,17.63,8.29,18,8.2,18.29c0.3,0.03,0.61,0.1,0.91,0.07
			c0.25-0.03,0.48-0.18,0.72-0.28c-0.18,0.41-0.33,0.76-0.48,1.11c0.26,0.11,0.6,0.38,0.76,0.29c0.37-0.19,0.72-0.51,0.96-0.86
			C11.26,18.34,11.27,17.93,11.4,17.45z"/>
		<path d="M28.29,71.92c-0.53,0.33-0.99,0.61-1.44,0.89c0.28,0.16,0.57,0.46,0.85,0.46C28.31,73.27,28.77,73.01,28.29,71.92z"/>
	</g>
	<g>
		<path d="M250.82,21.09c8.68,0,14.13,4.71,14.13,12.22c0,7.8-5.69,12.66-14.82,12.66h-4.46v8.49h-8.29V21.09H250.82z M250.62,38.7
			c3.68,0,6.03-2.11,6.03-5.4c0-2.99-2.35-4.91-6.03-4.91h-4.95v10.3H250.62z"/>
		<path d="M276.67,54.45h-8.29V21.09h8.29V54.45z"/>
		<path d="M316.6,54.45h-6.18l-0.34-4.02c-2.4,2.94-5.89,4.71-10.55,4.71c-10.45,0-17.76-7.46-17.76-17.02
			c0-10.4,7.65-17.71,17.86-17.71c8.14,0,15.21,4.61,16.63,12.56h-8.68c-1.47-3.88-4.81-4.95-7.8-4.95c-5.69,0-9.62,4.02-9.62,9.91
			c0,5.25,3.78,9.52,9.71,9.52c3.88,0,6.82-1.91,8.44-5.1l-9.57-0.1v-6.53h17.86V54.45z"/>
		<path d="M331.47,34.39h14.77v7.06h-14.77v5.79h16.93v7.21h-25.22V21.09h25.22v7.21h-16.93V34.39z"/>
		<path d="M361.39,44.79v9.67h-8.29V21.09h14.62c8.24,0,13.79,4.51,13.79,11.73c0,4.66-2.4,8.34-6.38,10.35l8.59,11.28H373.7
			l-7.16-9.67H361.39z M367.52,37.33c3.19,0,5.74-1.77,5.74-4.51c0-2.7-2.55-4.42-5.74-4.42h-6.13v8.93H367.52z"/>
	</g>
	<g>
		<path d="M72.62,54.41h-3.48V21.13h3.48V54.41z"/>
		<path d="M110.16,54.41h-2.99L85.44,27.39v27.02h-3.48V21.13h2.89l21.83,27.31V21.13h3.48V54.41z"/>
		<path d="M131.65,24.31v30.1h-3.48v-30.1h-12.38v-3.18h28.24v3.18H131.65z"/>
		<path d="M153.14,54.41h-3.48V21.13h3.48V54.41z"/>
		<path d="M194.64,54.41h-3.48l0.05-25.65l-11.45,19.09h-2.35l-11.55-19.24l0.1,25.8h-3.48V21.13h2.69l13.41,22.52L192,21.13h2.64
			V54.41z"/>
		<path d="M207.52,36.25h17.67v3.23h-17.67v11.75h19.63v3.18h-23.1V21.13h23.1v3.18h-19.63V36.25z"/>
	</g>
</g>
</svg>
