<?xml version="1.0" encoding="utf-8"?>
<svg fill="#FFF" version="1.1" id="Layer_1" xmlns="http://www.w3.org/2000/svg" viewBox="0 0 334.69 62.36" >
<g>
	<path d="M22.35,20.4c0-0.21-0.09-0.27-0.29-0.19c-0.41,0.17-0.81,0.13-1.22-0.03c-0.55-0.21-0.58-0.06-1.13,0.03
		c-1.51,0.24-3.04,0.34-4.57,0.32c-0.33,0-0.59-0.13-0.93-0.32c0.04,0.85-0.19,1.57-0.53,2.27c-0.04,0.08-0.04,0.19-0.04,0.29
		c0.01,1.84-0.76,3.45-1.49,5.07c-0.14,0.31-0.07,0.4,0.14,0.56c1.29,0.94,2.54,1.94,3.73,3.02c1.19,1.08,1.81,2.18,2.83,3.41
		c1.11,1.33,0.63,2.77-0.47,3.64c-0.15,0.12-0.32,0.23-0.49,0.32c-2.8,1.5-5.05,3.05-8.09,4.07c-0.38,0.13-0.54,0.32-0.58,0.77
		c-0.3,3.21-0.37,6.42-0.21,9.64c0.08,1.62,0.31,3.23,0.75,4.81c0.19,0.68,0.22,1.38,0.2,2.09c-0.02,0.74,0.07,0.77,0.62,0.96
		c0.59,0.2,1.16,0.49,1.73,0.74c0.1,0.04,0.23,0.08,0.21,0.23c-0.02,0.15-0.18,0.13-0.27,0.14c-1.06,0.11-2.13,0.2-3.19,0.11
		c-0.49-0.04-0.86-0.31-1.07-0.77c-0.19-0.43-0.39-0.87-0.59-1.3c-0.17-0.36-0.42-0.66-0.71-0.93c-0.22-0.2-0.34-0.12-0.43,0.12
		c-0.08,0.23-0.07,0.47-0.07,0.71c0,0.53,0.01,1.07,0.02,1.6c0,0.11,0.03,0.23-0.14,0.25c-0.18,0.02-0.2-0.1-0.21-0.24
		c-0.07-0.84-0.01-1.69-0.14-2.52c-0.05-0.36-0.09-0.72-0.2-1.07c-0.22-0.73,0.17-1.74,0.85-2.05c0.22-0.1,0.26-0.22,0.28-0.4
		c0.08-0.77-0.02-1.54-0.11-2.31c-0.15-1.24-0.33-2.47-0.49-3.7c-0.12-0.89-0.55-1.7-0.7-2.58c-0.06-0.34-0.1-0.69-0.15-1.07
		C4.49,46.6,3.72,47,3.04,47.55c-0.35,0.28-0.47,0.57-0.45,1c0.04,1.04-0.02,1.19-0.45,1.88c-0.23-0.16-0.31-0.42-0.42-0.65
		C1.35,49,0.98,48.21,1,47.31c0.01-0.59,0.22-1.06,0.77-1.34c0.6-0.31,1.03-0.77,1.22-1.43c0.17-0.59,0.04-0.8-0.56-0.91
		c-0.27-0.05-0.53,0-0.78,0.1c-0.42,0.16-0.83,0.33-1.24,0.52c-0.17,0.08-0.26,0.12-0.36-0.08c-0.13-0.25,0.07-0.25,0.2-0.3
		c0.82-0.31,1.57-0.8,2.48-0.87c0.2-0.02,0.3-0.19,0.38-0.36c0.37-0.71,1.08-0.97,1.83-0.68c0.24,0.09,0.45,0.29,0.77,0.3
		c-0.03-0.2-0.06-0.38-0.09-0.57c-0.09-0.54-0.11-1.09,0.02-1.63c0.21-0.82,0.21-1.63,0-2.45c-0.31-1.2-0.18-2.43-0.13-3.65
		c0.03-0.82,0.05-1.63-0.12-2.43C5.33,31.26,5.2,31.01,5,30.81c-1.42-1.35-1.43-3.42-0.41-5.01c0.53-0.83,1.26-1.46,2.07-2
		c0.79-0.53,1.4-1.19,1.62-2.16c0.1-0.44,0.01-0.83-0.17-1.22c-0.33-0.73-1.17-1.77-1.82-2.29C6.26,19,6.26,19.89,6.6,20.74
		c-0.16-0.35-0.32-0.69-0.48-1.04c0.13,0.58,0.16,1.15-0.2,1.68c-0.06-0.03-0.18-0.09-0.31-0.16c-0.04,0.33,0.15,0.61,0.09,0.98
		c-0.09-0.21-0.09-0.42-0.23-0.57c-0.24,0.19-0.07,0.51-0.28,0.69c0.04-0.48-0.25-0.82-0.48-1.28c-0.02,0.23,0.02,0.39-0.13,0.51
		c-0.11-0.05,0.02-0.18-0.11-0.24c-0.18,0.15-0.36,0.36-0.74,0.48c0.28-0.26,0.58-0.41,0.63-0.68c0.05-0.28-0.05-0.57-0.23-0.88
		c-0.08,0.38-0.04,0.71-0.22,1c-0.01-0.38,0.07-0.77-0.02-1.17c-0.07,0.46-0.37,0.65-0.8,0.77c0.65-0.52,0.36-1.13,0.21-1.85
		C3.23,19.5,3.61,20.03,3,20.31c0.32-0.3,0.19-0.67,0.19-1.01c0-0.19-0.08-0.4-0.21-0.48C2.86,18.74,2.77,19,2.63,19.05
		c0.15-0.7,0.01-1.41,0.04-2.11c0.01-0.39-0.04-0.79,0.08-1.18c-0.47,0.46-0.93,0.93-1.29,1.48c0.17-0.46,0.45-0.86,0.75-1.25
		c0.2-0.26,0.38-0.52,0.5-0.82c0.19-0.48,0.21-0.93-0.05-1.41c-0.72-1.3-0.67-2.6,0.1-3.86c0.27-0.44,0.33-0.86,0.2-1.36
		C2.78,7.9,2.81,7.26,3.04,6.64C3.19,6.2,2.99,5.78,2.97,5.35C2.9,3.77,2.69,2.19,3.24,0.64C3.35,0.35,3.4,0.03,3.8,0
		c0.35-0.03,0.91,0.27,1.05,0.58C5.12,1.21,5.23,1.87,5.3,2.55C5.3,2.6,5.31,2.66,5.33,2.76c0.22-0.17,0.42-0.34,0.63-0.49
		c0.61-0.44,1.32-0.51,1.89,0.09c0.28,0.3,0.62,0.53,1.1,0.52c0.25-0.01,0.68-0.02,0.54,0.5C9.48,3.44,9.61,3.52,9.68,3.6
		c0.5,0.6,0.91,1.24,1.13,2c0.1,0.34,0.12,0.68-0.22,0.93c-0.42,0.31-0.72,0.66-0.36,1.22C10.1,7.56,9.98,7.37,9.81,7.14
		C9.76,7.48,9.72,7.77,9.66,8.06C9.51,8.72,9.08,9.23,8.79,9.82c-0.13,0.26-0.14,0.65-0.57,0.68c-0.07,0-0.05,0.12-0.05,0.18
		c0,0.42,0,0.84-0.01,1.26c0,0.16,0.06,0.21,0.21,0.23c0.36,0.05,0.71,0.16,1.03,0.33c0.32,0.16,0.58,0.38,0.74,0.72
		c0.18,0.39,0.49,0.6,0.92,0.64c1.28,0.12,2.51,0.42,3.62,1.11c0.39,0.24,0.7,0.61,1.15,0.76c0.09,0.03,0.17,0.12,0.15,0.23
		c-0.15,0.72,0.23,1.48-0.2,2.17c-0.08,0.12,0,0.17,0.12,0.18c1.29,0.15,2.58,0.38,3.88,0.42c0.41,0.01,0.81-0.01,1.22,0.06
		c0.44,0.08,0.77-0.09,1.01-0.45c0.23-0.35,0.12-0.51,0.38-0.76c0.17-0.16,0.15-0.24,0.15-0.38 M14.89,36.37
		c-1.14-0.82-2.41-1.14-3.58-1.76c-0.06,0.86-0.25,1.63-0.53,2.38c-0.29,0.76-0.18,1.59-0.41,2.38
		C11.81,38.31,12.95,36.84,14.89,36.37z M5.9,21.15c0.3-0.52,0.12-0.91-0.02-1.42C5.76,20.26,5.87,20.65,5.9,21.15z M2.99,17.46
		c-0.03,0-0.07-0.01-0.1-0.01C2.86,17.79,2.7,18.13,2.9,18.5C2.93,18.15,2.96,17.8,2.99,17.46z"/>
</g>
<rect x="22.28" width="3" height="62.36"/>
<g>
	<g>
		<path d="M202.29,18.13c8.65,0,14.08,4.69,14.08,12.17c0,7.77-5.67,12.61-14.76,12.61h-4.45v8.46h-8.26V18.13H202.29z
			 M202.09,35.68c3.67,0,6.01-2.1,6.01-5.38c0-2.98-2.35-4.89-6.01-4.89h-4.94v10.26H202.09z"/>
		<path d="M228.05,51.36h-8.26V18.13h8.26V51.36z"/>
		<path d="M267.83,51.36h-6.16l-0.34-4.01c-2.39,2.93-5.86,4.69-10.51,4.69c-10.41,0-17.69-7.43-17.69-16.96
			c0-10.36,7.62-17.64,17.79-17.64c8.11,0,15.15,4.59,16.57,12.51h-8.65c-1.47-3.86-4.79-4.94-7.77-4.94
			c-5.67,0-9.58,4.01-9.58,9.87c0,5.23,3.76,9.48,9.68,9.48c3.86,0,6.79-1.91,8.41-5.08l-9.53-0.1v-6.5h17.79V51.36z"/>
		<path d="M282.64,31.37h14.71v7.04h-14.71v5.77h16.86v7.18h-25.12V18.13h25.12v7.18h-16.86V31.37z"/>
		<path d="M312.46,41.74v9.63h-8.26V18.13h14.57c8.21,0,13.73,4.5,13.73,11.68c0,4.64-2.39,8.31-6.35,10.31l8.55,11.24h-9.97
			l-7.14-9.63H312.46z M318.57,34.31c3.18,0,5.72-1.76,5.72-4.5c0-2.69-2.54-4.4-5.72-4.4h-6.11v8.9H318.57z"/>
	</g>
	<g>
		<path d="M60.92,51.44h-2.99L36.2,24.42v27.02h-3.48V18.15h2.89l21.83,27.31V18.15h3.48V51.44z"/>
		<path d="M82.41,21.33v30.1h-3.48v-30.1H66.55v-3.18h28.24v3.18H82.41z"/>
		<path d="M103.9,51.44h-3.48V18.15h3.48V51.44z"/>
		<path d="M145.4,51.44h-3.48l0.05-25.65l-11.45,19.09h-2.35l-11.55-19.24l0.1,25.8h-3.48V18.15h2.69l13.41,22.52l13.41-22.52h2.64
			V51.44z"/>
		<path d="M158.28,33.28h17.67v3.23h-17.67v11.75h19.63v3.18h-23.1V18.15h23.1v3.18h-19.63V33.28z"/>
	</g>
</g>
</svg>
